<svg width="1000" height="1000" viewBox="0 0 1000 1000" fill="none" xmlns="http://www.w3.org/2000/svg">
<path d="M1000 500C1000 776.142 776.142 1000 500 1000C223.858 1000 0 776.142 0 500C0 223.858 223.858 0 500 0C776.142 0 1000 223.858 1000 500Z" fill="#2563EB"/>
<path d="M460.532 239.614C467.889 194.949 532.111 194.949 539.468 239.614L566.048 400.984C568.835 417.904 582.096 431.165 599.016 433.952L760.386 460.532C805.051 467.889 805.051 532.111 760.386 539.468L599.016 566.048C582.096 568.835 568.835 582.096 566.048 599.016L539.468 760.386C532.111 805.051 467.889 805.051 460.532 760.386L433.952 599.016C431.165 582.096 417.904 568.835 400.984 566.048L239.614 539.468C194.949 532.111 194.949 467.889 239.614 460.532L400.984 433.952C417.904 431.165 431.165 417.904 433.952 400.984L460.532 239.614Z" fill="white"/>
</svg>
